<svg width="8" height="1108" viewBox="0 0 8 1108" fill="none" xmlns="http://www.w3.org/2000/svg">
<rect width="8" height="1" transform="matrix(-1 0 0 1 8.00049 0)" fill="white" fill-opacity="0.1"/>
<rect width="8" height="1" transform="matrix(-1 0 0 1 8.00049 9)" fill="white" fill-opacity="0.1"/>
<rect width="8" height="1" transform="matrix(-1 0 0 1 8.00049 18)" fill="white" fill-opacity="0.1"/>
<rect width="8" height="1" transform="matrix(-1 0 0 1 8.00049 27)" fill="white" fill-opacity="0.1"/>
<rect width="8" height="1" transform="matrix(-1 0 0 1 8.00049 36)" fill="white" fill-opacity="0.1"/>
<rect width="8" height="1" transform="matrix(-1 0 0 1 8.00049 45)" fill="white" fill-opacity="0.1"/>
<rect width="8" height="1" transform="matrix(-1 0 0 1 8.00049 54)" fill="white" fill-opacity="0.1"/>
<rect width="8" height="1" transform="matrix(-1 0 0 1 8.00049 63)" fill="white" fill-opacity="0.1"/>
<rect width="8" height="1" transform="matrix(-1 0 0 1 8.00049 72)" fill="white" fill-opacity="0.1"/>
<rect width="8" height="1" transform="matrix(-1 0 0 1 8.00049 81)" fill="white" fill-opacity="0.1"/>
<rect width="8" height="1" transform="matrix(-1 0 0 1 8.00049 90)" fill="white" fill-opacity="0.1"/>
<rect width="8" height="1" transform="matrix(-1 0 0 1 8.00049 99)" fill="white" fill-opacity="0.1"/>
<rect width="8" height="1" transform="matrix(-1 0 0 1 8.00049 108)" fill="white" fill-opacity="0.1"/>
<rect width="8" height="1" transform="matrix(-1 0 0 1 8.00049 117)" fill="white" fill-opacity="0.1"/>
<rect width="8" height="1" transform="matrix(-1 0 0 1 8.00049 126)" fill="white" fill-opacity="0.1"/>
<rect width="8" height="1" transform="matrix(-1 0 0 1 8.00049 135)" fill="white" fill-opacity="0.1"/>
<rect width="8" height="1" transform="matrix(-1 0 0 1 8.00049 144)" fill="white" fill-opacity="0.1"/>
<rect width="8" height="1" transform="matrix(-1 0 0 1 8.00049 153)" fill="white" fill-opacity="0.1"/>
<rect width="8" height="1" transform="matrix(-1 0 0 1 8.00049 162)" fill="white" fill-opacity="0.1"/>
<rect width="8" height="1" transform="matrix(-1 0 0 1 8.00049 171)" fill="white" fill-opacity="0.1"/>
<rect width="8" height="1" transform="matrix(-1 0 0 1 8.00049 180)" fill="white" fill-opacity="0.1"/>
<rect width="8" height="1" transform="matrix(-1 0 0 1 8.00049 189)" fill="white" fill-opacity="0.1"/>
<rect width="8" height="1" transform="matrix(-1 0 0 1 8.00049 198)" fill="white" fill-opacity="0.1"/>
<rect width="8" height="1" transform="matrix(-1 0 0 1 8.00049 207)" fill="white" fill-opacity="0.1"/>
<rect width="8" height="1" transform="matrix(-1 0 0 1 8.00049 216)" fill="white" fill-opacity="0.1"/>
<rect width="8" height="1" transform="matrix(-1 0 0 1 8.00049 225)" fill="white" fill-opacity="0.1"/>
<rect width="8" height="1" transform="matrix(-1 0 0 1 8.00049 234)" fill="white" fill-opacity="0.1"/>
<rect width="8" height="1" transform="matrix(-1 0 0 1 8.00049 243)" fill="white" fill-opacity="0.1"/>
<rect width="8" height="1" transform="matrix(-1 0 0 1 8.00049 252)" fill="white" fill-opacity="0.1"/>
<rect width="8" height="1" transform="matrix(-1 0 0 1 8.00049 261)" fill="white" fill-opacity="0.1"/>
<rect width="8" height="1" transform="matrix(-1 0 0 1 8.00049 270)" fill="white" fill-opacity="0.1"/>
<rect width="8" height="1" transform="matrix(-1 0 0 1 8.00049 279)" fill="white" fill-opacity="0.1"/>
<rect width="8" height="1" transform="matrix(-1 0 0 1 8.00049 288)" fill="white" fill-opacity="0.1"/>
<rect width="8" height="1" transform="matrix(-1 0 0 1 8.00049 297)" fill="white" fill-opacity="0.1"/>
<rect width="8" height="1" transform="matrix(-1 0 0 1 8.00049 306)" fill="white" fill-opacity="0.1"/>
<rect width="8" height="1" transform="matrix(-1 0 0 1 8.00049 315)" fill="white" fill-opacity="0.1"/>
<rect width="8" height="1" transform="matrix(-1 0 0 1 8.00049 324)" fill="white" fill-opacity="0.1"/>
<rect width="8" height="1" transform="matrix(-1 0 0 1 8.00049 333)" fill="white" fill-opacity="0.1"/>
<rect width="8" height="1" transform="matrix(-1 0 0 1 8.00049 342)" fill="white" fill-opacity="0.1"/>
<rect width="8" height="1" transform="matrix(-1 0 0 1 8.00049 351)" fill="white" fill-opacity="0.1"/>
<rect width="8" height="1" transform="matrix(-1 0 0 1 8.00049 360)" fill="white" fill-opacity="0.1"/>
<rect width="8" height="1" transform="matrix(-1 0 0 1 8.00049 369)" fill="white" fill-opacity="0.1"/>
<rect width="8" height="1" transform="matrix(-1 0 0 1 8.00049 378)" fill="white" fill-opacity="0.1"/>
<rect width="8" height="1" transform="matrix(-1 0 0 1 8.00049 387)" fill="white" fill-opacity="0.1"/>
<rect width="8" height="1" transform="matrix(-1 0 0 1 8.00049 396)" fill="white" fill-opacity="0.1"/>
<rect width="8" height="1" transform="matrix(-1 0 0 1 8.00049 405)" fill="white" fill-opacity="0.1"/>
<rect width="8" height="1" transform="matrix(-1 0 0 1 8.00049 414)" fill="white" fill-opacity="0.1"/>
<rect width="8" height="1" transform="matrix(-1 0 0 1 8.00049 423)" fill="white" fill-opacity="0.1"/>
<rect width="8" height="1" transform="matrix(-1 0 0 1 8.00049 432)" fill="white" fill-opacity="0.1"/>
<rect width="8" height="1" transform="matrix(-1 0 0 1 8.00049 441)" fill="white" fill-opacity="0.1"/>
<rect width="8" height="1" transform="matrix(-1 0 0 1 8.00049 450)" fill="white" fill-opacity="0.1"/>
<rect width="8" height="1" transform="matrix(-1 0 0 1 8.00049 459)" fill="white" fill-opacity="0.1"/>
<rect width="8" height="1" transform="matrix(-1 0 0 1 8.00049 468)" fill="white" fill-opacity="0.1"/>
<rect width="8" height="1" transform="matrix(-1 0 0 1 8.00049 477)" fill="white" fill-opacity="0.1"/>
<rect width="8" height="1" transform="matrix(-1 0 0 1 8.00049 486)" fill="white" fill-opacity="0.1"/>
<rect width="8" height="1" transform="matrix(-1 0 0 1 8.00049 495)" fill="white" fill-opacity="0.1"/>
<rect width="8" height="1" transform="matrix(-1 0 0 1 8.00049 504)" fill="white" fill-opacity="0.1"/>
<rect width="8" height="1" transform="matrix(-1 0 0 1 8.00049 513)" fill="white" fill-opacity="0.1"/>
<rect width="8" height="1" transform="matrix(-1 0 0 1 8.00049 522)" fill="white" fill-opacity="0.1"/>
<rect width="8" height="1" transform="matrix(-1 0 0 1 8.00049 531)" fill="white" fill-opacity="0.1"/>
<rect width="8" height="1" transform="matrix(-1 0 0 1 8.00049 540)" fill="white" fill-opacity="0.1"/>
<rect width="8" height="1" transform="matrix(-1 0 0 1 8.00049 549)" fill="white" fill-opacity="0.1"/>
<rect width="8" height="1" transform="matrix(-1 0 0 1 8.00049 558)" fill="white" fill-opacity="0.1"/>
<rect width="8" height="1" transform="matrix(-1 0 0 1 8.00049 567)" fill="white" fill-opacity="0.1"/>
<rect width="8" height="1" transform="matrix(-1 0 0 1 8.00049 576)" fill="white" fill-opacity="0.1"/>
<rect width="8" height="1" transform="matrix(-1 0 0 1 8.00049 585)" fill="white" fill-opacity="0.1"/>
<rect width="8" height="1" transform="matrix(-1 0 0 1 8.00049 594)" fill="white" fill-opacity="0.1"/>
<rect width="8" height="1" transform="matrix(-1 0 0 1 8.00049 603)" fill="white" fill-opacity="0.1"/>
<rect width="8" height="1" transform="matrix(-1 0 0 1 8.00049 612)" fill="white" fill-opacity="0.1"/>
<rect width="8" height="1" transform="matrix(-1 0 0 1 8.00049 621)" fill="white" fill-opacity="0.1"/>
<rect width="8" height="1" transform="matrix(-1 0 0 1 8.00049 630)" fill="white" fill-opacity="0.1"/>
<rect width="8" height="1" transform="matrix(-1 0 0 1 8.00049 639)" fill="white" fill-opacity="0.1"/>
<rect width="8" height="1" transform="matrix(-1 0 0 1 8.00049 648)" fill="white" fill-opacity="0.1"/>
<rect width="8" height="1" transform="matrix(-1 0 0 1 8.00049 657)" fill="white" fill-opacity="0.1"/>
<rect width="8" height="1" transform="matrix(-1 0 0 1 8.00049 666)" fill="white" fill-opacity="0.1"/>
<rect width="8" height="1" transform="matrix(-1 0 0 1 8.00049 675)" fill="white" fill-opacity="0.1"/>
<rect width="8" height="1" transform="matrix(-1 0 0 1 8.00049 684)" fill="white" fill-opacity="0.1"/>
<rect width="8" height="1" transform="matrix(-1 0 0 1 8.00049 693)" fill="white" fill-opacity="0.1"/>
<rect width="8" height="1" transform="matrix(-1 0 0 1 8.00049 702)" fill="white" fill-opacity="0.1"/>
<rect width="8" height="1" transform="matrix(-1 0 0 1 8.00049 711)" fill="white" fill-opacity="0.1"/>
<rect width="8" height="1" transform="matrix(-1 0 0 1 8.00049 720)" fill="white" fill-opacity="0.1"/>
<rect width="8" height="1" transform="matrix(-1 0 0 1 8.00049 729)" fill="white" fill-opacity="0.1"/>
<rect width="8" height="1" transform="matrix(-1 0 0 1 8.00049 738)" fill="white" fill-opacity="0.1"/>
<rect width="8" height="1" transform="matrix(-1 0 0 1 8.00049 747)" fill="white" fill-opacity="0.1"/>
<rect width="8" height="1" transform="matrix(-1 0 0 1 8.00049 756)" fill="white" fill-opacity="0.1"/>
<rect width="8" height="1" transform="matrix(-1 0 0 1 8.00049 765)" fill="white" fill-opacity="0.1"/>
<rect width="8" height="1" transform="matrix(-1 0 0 1 8.00049 774)" fill="white" fill-opacity="0.1"/>
<rect width="8" height="1" transform="matrix(-1 0 0 1 8.00049 783)" fill="white" fill-opacity="0.1"/>
<rect width="8" height="1" transform="matrix(-1 0 0 1 8.00049 792)" fill="white" fill-opacity="0.1"/>
<rect width="8" height="1" transform="matrix(-1 0 0 1 8.00049 801)" fill="white" fill-opacity="0.1"/>
<rect width="8" height="1" transform="matrix(-1 0 0 1 8.00049 810)" fill="white" fill-opacity="0.1"/>
<rect width="8" height="1" transform="matrix(-1 0 0 1 8.00049 819)" fill="white" fill-opacity="0.1"/>
<rect width="8" height="1" transform="matrix(-1 0 0 1 8.00049 828)" fill="white" fill-opacity="0.1"/>
<rect width="8" height="1" transform="matrix(-1 0 0 1 8.00049 837)" fill="white" fill-opacity="0.1"/>
<rect width="8" height="1" transform="matrix(-1 0 0 1 8.00049 846)" fill="white" fill-opacity="0.1"/>
<rect width="8" height="1" transform="matrix(-1 0 0 1 8.00049 855)" fill="white" fill-opacity="0.1"/>
<rect width="8" height="1" transform="matrix(-1 0 0 1 8.00049 864)" fill="white" fill-opacity="0.1"/>
<rect width="8" height="1" transform="matrix(-1 0 0 1 8.00049 873)" fill="white" fill-opacity="0.1"/>
<rect width="8" height="1" transform="matrix(-1 0 0 1 8.00049 882)" fill="white" fill-opacity="0.1"/>
<rect width="8" height="1" transform="matrix(-1 0 0 1 8.00049 891)" fill="white" fill-opacity="0.1"/>
<rect width="8" height="1" transform="matrix(-1 0 0 1 8.00049 900)" fill="white" fill-opacity="0.1"/>
<rect width="8" height="1" transform="matrix(-1 0 0 1 8.00049 909)" fill="white" fill-opacity="0.1"/>
<rect width="8" height="1" transform="matrix(-1 0 0 1 8.00049 918)" fill="white" fill-opacity="0.1"/>
<rect width="8" height="1" transform="matrix(-1 0 0 1 8.00049 927)" fill="white" fill-opacity="0.1"/>
<rect width="8" height="1" transform="matrix(-1 0 0 1 8.00049 936)" fill="white" fill-opacity="0.1"/>
<rect width="8" height="1" transform="matrix(-1 0 0 1 8.00049 945)" fill="white" fill-opacity="0.1"/>
<rect width="8" height="1" transform="matrix(-1 0 0 1 8.00049 954)" fill="white" fill-opacity="0.1"/>
<rect width="8" height="1" transform="matrix(-1 0 0 1 8.00049 963)" fill="white" fill-opacity="0.1"/>
<rect width="8" height="1" transform="matrix(-1 0 0 1 8.00049 972)" fill="white" fill-opacity="0.1"/>
<rect width="8" height="1" transform="matrix(-1 0 0 1 8.00049 981)" fill="white" fill-opacity="0.1"/>
<rect width="8" height="1" transform="matrix(-1 0 0 1 8.00049 990)" fill="white" fill-opacity="0.1"/>
<rect width="8" height="1" transform="matrix(-1 0 0 1 8.00049 999)" fill="white" fill-opacity="0.1"/>
<rect width="8" height="1" transform="matrix(-1 0 0 1 8.00049 1008)" fill="white" fill-opacity="0.1"/>
<rect width="8" height="1" transform="matrix(-1 0 0 1 8.00049 1017)" fill="white" fill-opacity="0.1"/>
<rect width="8" height="1" transform="matrix(-1 0 0 1 8.00049 1026)" fill="white" fill-opacity="0.1"/>
<rect width="8" height="1" transform="matrix(-1 0 0 1 8.00049 1035)" fill="white" fill-opacity="0.1"/>
<rect width="8" height="1" transform="matrix(-1 0 0 1 8.00049 1044)" fill="white" fill-opacity="0.1"/>
<rect width="8" height="1" transform="matrix(-1 0 0 1 8.00049 1053)" fill="white" fill-opacity="0.1"/>
<rect width="8" height="1" transform="matrix(-1 0 0 1 8.00049 1062)" fill="white" fill-opacity="0.1"/>
<rect width="8" height="1" transform="matrix(-1 0 0 1 8.00049 1071)" fill="white" fill-opacity="0.1"/>
<rect width="8" height="1" transform="matrix(-1 0 0 1 8.00049 1080)" fill="white" fill-opacity="0.1"/>
<rect width="8" height="1" transform="matrix(-1 0 0 1 8.00049 1089)" fill="white" fill-opacity="0.1"/>
<rect width="8" height="1" transform="matrix(-1 0 0 1 8.00049 1098)" fill="white" fill-opacity="0.1"/>
<rect width="8" height="1" transform="matrix(-1 0 0 1 8.00049 1107)" fill="white" fill-opacity="0.1"/>
</svg>
